<?xml version="1.0" encoding="UTF-8" standalone="no"?>
<!-- Created with Inkscape (http://www.inkscape.org/) -->

<svg
   xmlns:dc="http://purl.org/dc/elements/1.1/"
   xmlns:cc="http://creativecommons.org/ns#"
   xmlns:rdf="http://www.w3.org/1999/02/22-rdf-syntax-ns#"
   xmlns:svg="http://www.w3.org/2000/svg"
   xmlns="http://www.w3.org/2000/svg"
   xmlns:sodipodi="http://sodipodi.sourceforge.net/DTD/sodipodi-0.dtd"
   xmlns:inkscape="http://www.inkscape.org/namespaces/inkscape"
   width="210mm"
   height="297mm"
   viewBox="0 0 744.09448819 1052.3622047"
   id="svg2"
   version="1.1"
   inkscape:version="0.91 r13725"
   sodipodi:docname="techtree.svg">
  <defs
     id="defs4" />
  <sodipodi:namedview
     id="base"
     pagecolor="#ffffff"
     bordercolor="#666666"
     borderopacity="1.0"
     inkscape:pageopacity="0.0"
     inkscape:pageshadow="2"
     inkscape:zoom="0.98994949"
     inkscape:cx="596.89477"
     inkscape:cy="707.74801"
     inkscape:document-units="px"
     inkscape:current-layer="layer1"
     showgrid="false"
     inkscape:window-width="1680"
     inkscape:window-height="987"
     inkscape:window-x="1358"
     inkscape:window-y="-8"
     inkscape:window-maximized="1" />
  <metadata
     id="metadata7">
    <rdf:RDF>
      <cc:Work
         rdf:about="">
        <dc:format>image/svg+xml</dc:format>
        <dc:type
           rdf:resource="http://purl.org/dc/dcmitype/StillImage" />
        <dc:title></dc:title>
      </cc:Work>
    </rdf:RDF>
  </metadata>
  <g
     inkscape:label="Ebene 1"
     inkscape:groupmode="layer"
     id="layer1">
    <rect
       style="fill:#ffffff;fill-rule:evenodd;stroke:#000000;stroke-width:1.41003931px;stroke-linecap:butt;stroke-linejoin:miter;stroke-opacity:1"
       id="rect3336"
       width="173.33621"
       height="22.823467"
       x="66.875084"
       y="113.63042" />
    <text
       xml:space="preserve"
       style="font-style:normal;font-weight:normal;font-size:40px;line-height:125%;font-family:sans-serif;letter-spacing:0px;word-spacing:0px;fill:#000000;fill-opacity:1;stroke:none;stroke-width:1px;stroke-linecap:butt;stroke-linejoin:miter;stroke-opacity:1"
       x="70.205605"
       y="128.07263"
       id="text4140"
       sodipodi:linespacing="125%"><tspan
         sodipodi:role="line"
         id="tspan4142"
         x="70.205605"
         y="128.07263"
         style="font-size:12.5px">Mining</tspan></text>
    <rect
       style="fill:#ffffff;fill-rule:evenodd;stroke:#000000;stroke-width:1.41003931px;stroke-linecap:butt;stroke-linejoin:miter;stroke-opacity:1"
       id="rect3336-0"
       width="173.33621"
       height="22.823467"
       x="325.47412"
       y="112.62029" />
    <text
       xml:space="preserve"
       style="font-style:normal;font-weight:normal;font-size:40px;line-height:125%;font-family:sans-serif;letter-spacing:0px;word-spacing:0px;fill:#000000;fill-opacity:1;stroke:none;stroke-width:1px;stroke-linecap:butt;stroke-linejoin:miter;stroke-opacity:1"
       x="328.80466"
       y="127.0625"
       id="text4140-7"
       sodipodi:linespacing="125%"><tspan
         sodipodi:role="line"
         id="tspan4142-1"
         x="328.80466"
         y="127.0625"
         style="font-size:12.5px">Astromining</tspan></text>
    <path
       style="fill:none;fill-rule:evenodd;stroke:#000000;stroke-width:1px;stroke-linecap:butt;stroke-linejoin:miter;stroke-opacity:1"
       d="m 243.95184,124.53709 c 23.52584,0 -7.84068,0.005 65.65992,-0.50507 3.36453,-0.0234 6.7346,0 10.10152,0 1.17851,0 2.35702,0 3.53553,0 0.16836,0 0.38603,0.11904 0.50508,0 0.11905,-0.11905 0,-0.33672 0,-0.50508 0,-0.16836 0,-0.33672 0,-0.50508 0,-0.16836 0.0753,-0.35449 0,-0.50507 -0.10648,-0.21296 -0.373,-0.30697 -0.50508,-0.50508 -0.20882,-0.31324 -0.29625,-0.69692 -0.50507,-1.01015 -0.13207,-0.19811 -0.3986,-0.29212 -0.50508,-0.50508 -0.15058,-0.30117 0.2381,-0.77206 0,-1.01015 -0.11905,-0.11905 -0.38603,0.11905 -0.50507,0 -0.11905,-0.11905 0.0753,-0.35449 0,-0.50508 -0.10648,-0.21296 -0.3986,-0.29212 -0.50508,-0.50507 -0.0753,-0.15059 0.0753,-0.3545 0,-0.50508 -0.77013,-1.54026 -0.40041,0.92376 -1.01015,-1.51523 -0.0817,-0.32666 0.10648,-0.69071 0,-1.01015 -0.15059,-0.45176 -0.7972,-0.58424 -1.01016,-1.01015 -0.15058,-0.30117 0.15059,-0.70899 0,-1.01016 -0.10647,-0.21296 -0.39859,-0.29211 -0.50507,-0.50507 -0.15059,-0.30117 0.15058,-0.70899 0,-1.01016 -0.10648,-0.21295 -0.3986,-0.29211 -0.50508,-0.50507 -0.0753,-0.15059 0.11905,-0.38603 0,-0.50508 -0.11905,-0.11905 -0.38603,0.11905 -0.50507,0 -0.11905,-0.11905 0.11904,-0.38603 0,-0.50507 -0.11905,-0.11905 -0.38603,0.11904 -0.50508,0 -0.2381,-0.2381 0.23809,-0.77206 0,-1.01016 -0.11905,-0.11904 -0.38603,0.11905 -0.50508,0 -0.11904,-0.11904 0.11905,-0.38603 0,-0.50507 -0.11904,-0.11905 -0.38603,0.11904 -0.50507,0 -0.11905,-0.11905 0.11904,-0.38603 0,-0.50508 -0.11905,-0.11905 -0.38603,0.11905 -0.50508,0 -0.11905,-0.11905 0.11905,-0.38603 0,-0.50508 -0.67343,-0.67343 -0.50508,0.8418 -0.50508,-0.50507"
       id="path4165"
       inkscape:connector-curvature="0" />
    <path
       style="fill:none;fill-rule:evenodd;stroke:#000000;stroke-width:1px;stroke-linecap:butt;stroke-linejoin:miter;stroke-opacity:1"
       d="m 323.75389,125.04217 c -0.67343,0 -1.36698,-0.16333 -2.0203,0 -0.16334,0.0408 0.11904,0.38603 0,0.50507 -0.11905,0.11905 -0.38603,-0.11904 -0.50508,0 -0.11905,0.11905 0.11905,0.38603 0,0.50508 -0.2662,0.2662 -0.69692,0.29625 -1.01015,0.50508 -0.19811,0.13207 -0.33672,0.33671 -0.50508,0.50507 -0.50508,0.50508 -1.11901,0.92091 -1.51523,1.51523 -0.29532,0.44298 -0.2229,1.06376 -0.50507,1.51523 -0.3477,1.74411 -2.12827,2.27246 -3.03046,3.53553 -3.0774,4.30836 -0.55142,1.08739 -2.02031,3.53554 -0.62462,1.04104 -1.47736,1.94457 -2.0203,3.03046 -0.0753,0.15058 0.11905,0.38602 0,0.50507 -0.11905,0.11905 -0.38603,-0.11905 -0.50508,0 -0.23809,0.2381 0.2381,0.77206 0,1.01015 -0.67343,0.67344 -0.50507,-0.84179 -0.50507,0.50508"
       id="path4167"
       inkscape:connector-curvature="0" />
    <rect
       style="fill:#ffffff;fill-rule:evenodd;stroke:#000000;stroke-width:1.41003931px;stroke-linecap:butt;stroke-linejoin:miter;stroke-opacity:1"
       id="rect3336-3"
       width="173.33621"
       height="22.823467"
       x="319.41321"
       y="195.95787" />
    <text
       xml:space="preserve"
       style="font-style:normal;font-weight:normal;font-size:40px;line-height:125%;font-family:sans-serif;letter-spacing:0px;word-spacing:0px;fill:#000000;fill-opacity:1;stroke:none;stroke-width:1px;stroke-linecap:butt;stroke-linejoin:miter;stroke-opacity:1"
       x="322.74374"
       y="210.40009"
       id="text4140-8"
       sodipodi:linespacing="125%"><tspan
         sodipodi:role="line"
         id="tspan4142-7"
         x="322.74374"
         y="210.40009"
         style="font-size:12.5px">Thrusters</tspan></text>
    <rect
       style="fill:#ffffff;fill-rule:evenodd;stroke:#000000;stroke-width:1.41003931px;stroke-linecap:butt;stroke-linejoin:miter;stroke-opacity:1"
       id="rect3336-3-1"
       width="173.33621"
       height="22.823467"
       x="66.875084"
       y="197.47308" />
    <text
       xml:space="preserve"
       style="font-style:normal;font-weight:normal;font-size:40px;line-height:125%;font-family:sans-serif;letter-spacing:0px;word-spacing:0px;fill:#000000;fill-opacity:1;stroke:none;stroke-width:1px;stroke-linecap:butt;stroke-linejoin:miter;stroke-opacity:1"
       x="70.20562"
       y="211.9153"
       id="text4140-8-9"
       sodipodi:linespacing="125%"><tspan
         sodipodi:role="line"
         id="tspan4142-7-9"
         x="70.20562"
         y="211.9153"
         style="font-size:12.5px">metallurgy</tspan></text>
    <path
       style="fill:none;fill-rule:evenodd;stroke:#000000;stroke-width:1px;stroke-linecap:butt;stroke-linejoin:miter;stroke-opacity:1"
       d="m 240.14078,207.62214 c 23.52584,0 -7.84068,0.005 65.65992,-0.50507 3.36453,-0.0234 6.7346,0 10.10152,0 1.17851,0 2.35702,0 3.53553,0 0.16836,0 0.38603,0.11904 0.50508,0 0.11905,-0.11905 0,-0.33672 0,-0.50508 0,-0.16836 0,-0.33672 0,-0.50508 0,-0.16836 0.0753,-0.35449 0,-0.50507 -0.10648,-0.21296 -0.373,-0.30697 -0.50508,-0.50508 -0.20882,-0.31324 -0.29625,-0.69692 -0.50507,-1.01015 -0.13207,-0.19811 -0.3986,-0.29212 -0.50508,-0.50508 -0.15058,-0.30117 0.2381,-0.77206 0,-1.01015 -0.11905,-0.11905 -0.38603,0.11905 -0.50507,0 -0.11905,-0.11905 0.0753,-0.35449 0,-0.50508 -0.10648,-0.21296 -0.3986,-0.29212 -0.50508,-0.50507 -0.0753,-0.15059 0.0753,-0.3545 0,-0.50508 -0.77013,-1.54026 -0.40041,0.92376 -1.01015,-1.51523 -0.0817,-0.32666 0.10648,-0.69071 0,-1.01015 -0.15059,-0.45176 -0.7972,-0.58424 -1.01016,-1.01015 -0.15058,-0.30117 0.15059,-0.70899 0,-1.01016 -0.10647,-0.21296 -0.39859,-0.29211 -0.50507,-0.50507 -0.15059,-0.30117 0.15058,-0.70899 0,-1.01016 -0.10648,-0.21295 -0.3986,-0.29211 -0.50508,-0.50507 -0.0753,-0.15059 0.11905,-0.38603 0,-0.50508 -0.11905,-0.11905 -0.38603,0.11905 -0.50507,0 -0.11905,-0.11905 0.11904,-0.38603 0,-0.50507 -0.11905,-0.11905 -0.38603,0.11904 -0.50508,0 -0.2381,-0.2381 0.23809,-0.77206 0,-1.01016 -0.11905,-0.11904 -0.38603,0.11905 -0.50508,0 -0.11904,-0.11904 0.11905,-0.38603 0,-0.50507 -0.11904,-0.11905 -0.38603,0.11904 -0.50507,0 -0.11905,-0.11905 0.11904,-0.38603 0,-0.50508 -0.11905,-0.11905 -0.38603,0.11905 -0.50508,0 -0.11905,-0.11905 0.11905,-0.38603 0,-0.50508 -0.67343,-0.67343 -0.50508,0.8418 -0.50508,-0.50507"
       id="path4165-5"
       inkscape:connector-curvature="0" />
    <path
       style="fill:none;fill-rule:evenodd;stroke:#000000;stroke-width:1px;stroke-linecap:butt;stroke-linejoin:miter;stroke-opacity:1"
       d="m 319.94283,208.12722 c -0.67343,0 -1.36698,-0.16333 -2.0203,0 -0.16334,0.0408 0.11904,0.38603 0,0.50507 -0.11905,0.11905 -0.38603,-0.11904 -0.50508,0 -0.11905,0.11905 0.11905,0.38603 0,0.50508 -0.2662,0.2662 -0.69692,0.29625 -1.01015,0.50508 -0.19811,0.13207 -0.33672,0.33671 -0.50508,0.50507 -0.50508,0.50508 -1.11901,0.92091 -1.51523,1.51523 -0.29532,0.44298 -0.2229,1.06376 -0.50507,1.51523 -0.3477,1.74411 -2.12827,2.27246 -3.03046,3.53553 -3.0774,4.30836 -0.55142,1.08739 -2.02031,3.53554 -0.62462,1.04104 -1.47736,1.94457 -2.0203,3.03046 -0.0753,0.15058 0.11905,0.38602 0,0.50507 -0.11905,0.11905 -0.38603,-0.11905 -0.50508,0 -0.23809,0.2381 0.2381,0.77206 0,1.01015 -0.67343,0.67344 -0.50507,-0.84179 -0.50507,0.50508"
       id="path4167-4"
       inkscape:connector-curvature="0" />
    <path
       style="fill:none;fill-rule:evenodd;stroke:#000000;stroke-width:1px;stroke-linecap:butt;stroke-linejoin:miter;stroke-opacity:1"
       d="m 241.42646,221.51174 c 1.09339,2.18678 0.88623,2.07362 2.52538,4.04061 0.30485,0.36582 0.72444,0.6292 1.01015,1.01015 0.72843,0.97124 1.27495,2.07214 2.02031,3.03046 0.43853,0.56382 1.01015,1.01015 1.51523,1.51522 1.68358,1.68359 3.36717,3.36718 5.05076,5.05077 2.69374,2.69374 5.38748,5.38748 8.08122,8.08122 2.52538,2.52538 5.05076,5.05076 7.57614,7.57614 0.8418,0.8418 1.65508,1.7131 2.52538,2.52538 9.98809,9.32222 1.01184,0.83338 8.08123,7.07107 16.89148,14.90426 -0.93748,-0.44451 8.08122,7.07107 1.19242,0.99369 2.38179,1.9921 3.53553,3.03046 0.53092,0.47783 0.92795,1.10865 1.51523,1.51523 1.61428,1.11757 3.43648,1.91288 5.05076,3.03045 0.58728,0.40658 0.98431,1.0374 1.51523,1.51523 1.15373,1.03836 2.38701,1.98634 3.53553,3.03046 2.05772,1.87065 2.80598,3.08658 5.05077,5.05076 0.28331,0.2479 0.71618,0.2699 1.01015,0.50508 0.74368,0.59495 1.34687,1.34687 2.0203,2.0203 0.16836,0.16836 0.29212,0.3986 0.50508,0.50508 0.15059,0.0753 0.35449,-0.0753 0.50508,0 2.102,1.051 -0.53995,-0.0349 0.50507,1.01015 0.11905,0.11905 0.35449,-0.0753 0.50508,0 0.42592,0.21296 0.58423,0.7972 1.01015,1.01016 0.15059,0.0753 0.38603,-0.11905 0.50508,0 0.11905,0.11904 -0.0753,0.35449 0,0.50507 0.13487,0.26975 1.24932,1.24933 1.51523,1.51523 0.2659,0.2659 1.24547,1.38035 1.51523,1.51523 1.48634,0.74317 -0.66498,-1.17005 1.01015,0.50508 0.16836,0.16835 0.3986,0.29211 0.50507,0.50507 0.0753,0.15059 -0.11904,0.38603 0,0.50508 0.11905,0.11905 0.38603,-0.11905 0.50508,0 0.11905,0.11905 -0.11905,0.38603 0,0.50507 0.11905,0.11905 0.33672,0 0.50508,0 0.16836,0 0.33671,0 0.50507,0"
       id="path4231"
       inkscape:connector-curvature="0" />
    <path
       style="fill:none;fill-rule:evenodd;stroke:#000000;stroke-width:1px;stroke-linecap:butt;stroke-linejoin:miter;stroke-opacity:1"
       d="m 318.70313,294.7478 c 0,-2.18867 0,-4.37733 0,-6.566 0,-0.33671 0.066,-0.67997 0,-1.01015 -0.10441,-0.52206 -0.40067,-0.99317 -0.50508,-1.51523 -0.066,-0.33018 0.066,-0.67997 0,-1.01015 -0.5255,-2.62751 -0.33672,-0.50508 -1.01015,-2.52538 -0.21951,-0.65854 -0.31438,-1.35285 -0.50508,-2.02031 -0.14626,-0.51191 -0.37595,-0.99872 -0.50507,-1.51523 -0.20821,-0.83283 -0.26924,-1.69994 -0.50508,-2.52538 -0.10342,-0.36197 -0.36526,-0.66061 -0.50508,-1.01015 -0.19772,-0.49432 -0.37595,-0.99873 -0.50507,-1.51523 -0.0408,-0.16333 0.0753,-0.35449 0,-0.50507 -0.77013,-1.54027 -0.40041,0.92375 -1.01015,-1.51523 -0.004,-0.0169 0.003,-1.51255 0,-1.51523 -0.11905,-0.11905 -0.42979,0.15058 -0.50508,0 -0.15059,-0.30117 0.10648,-0.69072 0,-1.01015 -0.15059,-0.45176 -0.89466,-0.54818 -1.01015,-1.01016 -0.1225,-0.48999 0.1225,-1.02523 0,-1.51523 -0.1155,-0.46197 -0.7972,-0.58423 -1.01016,-1.01015 -0.0753,-0.15058 0,-0.33672 0,-0.50507"
       id="path4233"
       inkscape:connector-curvature="0" />
    <path
       style="fill:none;fill-rule:evenodd;stroke:#000000;stroke-width:1px;stroke-linecap:butt;stroke-linejoin:miter;stroke-opacity:1"
       d="m 317.69298,292.72749 c -2.18364,0.54591 -1.32615,0.50508 -2.52539,0.50508 -0.16835,0 -0.35449,-0.0753 -0.50507,0 -0.21296,0.10648 -0.27409,0.44733 -0.50508,0.50507 -0.48999,0.1225 -1.02523,-0.1225 -1.51523,0 -0.23098,0.0577 -0.2792,0.42979 -0.50507,0.50508 -1.51523,0.50508 -0.50508,-0.25254 -1.51523,0 -0.5165,0.12912 -1.02091,0.30735 -1.51523,0.50508 -0.34954,0.13981 -0.64493,0.41377 -1.01015,0.50507 -0.65333,0.16333 -1.38143,-0.21296 -2.02031,0 -0.22588,0.0753 -0.29212,0.3986 -0.50507,0.50508 -0.20026,0.10013 -1.41198,-0.10326 -1.51523,0 -0.11905,0.11905 0.11904,0.38603 0,0.50507 -0.14945,0.14945 -1.70746,-0.15642 -2.02031,0 -0.21296,0.10648 -0.33672,0.33672 -0.50508,0.50508 -0.33671,0 -0.69071,-0.10648 -1.01015,0 -0.22587,0.0753 -0.2792,0.42978 -0.50507,0.50508 -0.31644,0.10548 -3.15083,0 -3.53554,0 -0.33672,0 -0.69071,-0.10648 -1.01015,0 -0.35714,0.11904 -0.65301,0.38603 -1.01015,0.50507 -0.59225,0.19742 -1.46409,-0.27811 -2.02031,0 -1.34687,0.67344 1.51523,0.50508 -0.50507,0.50508"
       id="path4235"
       inkscape:connector-curvature="0" />
    <rect
       style="fill:#ffffff;fill-rule:evenodd;stroke:#000000;stroke-width:1.41003931px;stroke-linecap:butt;stroke-linejoin:miter;stroke-opacity:1"
       id="rect3336-3-1-6"
       width="173.33621"
       height="22.823467"
       x="319.9183"
       y="283.84116" />
    <text
       xml:space="preserve"
       style="font-style:normal;font-weight:normal;font-size:40px;line-height:125%;font-family:sans-serif;letter-spacing:0px;word-spacing:0px;fill:#000000;fill-opacity:1;stroke:none;stroke-width:1px;stroke-linecap:butt;stroke-linejoin:miter;stroke-opacity:1"
       x="323.24884"
       y="298.28336"
       id="text4140-8-9-9"
       sodipodi:linespacing="125%"><tspan
         sodipodi:role="line"
         id="tspan4142-7-9-0"
         x="323.24884"
         y="298.28336"
         style="font-size:12.5px">space vehicle hull</tspan></text>
    <rect
       style="fill:#ffffff;fill-rule:evenodd;stroke:#000000;stroke-width:1.41003931px;stroke-linecap:butt;stroke-linejoin:miter;stroke-opacity:1"
       id="rect3336-3-1-7"
       width="173.33621"
       height="22.823467"
       x="326.98938"
       y="347.98584" />
    <text
       xml:space="preserve"
       style="font-style:normal;font-weight:normal;font-size:40px;line-height:125%;font-family:sans-serif;letter-spacing:0px;word-spacing:0px;fill:#000000;fill-opacity:1;stroke:none;stroke-width:1px;stroke-linecap:butt;stroke-linejoin:miter;stroke-opacity:1"
       x="330.31992"
       y="362.42804"
       id="text4140-8-9-1"
       sodipodi:linespacing="125%"><tspan
         sodipodi:role="line"
         id="tspan4142-7-9-8"
         x="330.31992"
         y="362.42804"
         style="font-size:12.5px">radar</tspan></text>
    <path
       style="fill:none;fill-rule:evenodd;stroke:#000000;stroke-width:1px;stroke-linecap:butt;stroke-linejoin:miter;stroke-opacity:1"
       d="m 222.73864,222.52188 c 1.5309,0.97088 0.12861,2.40615 0.50507,3.53554 1.80204,5.4061 0.17294,-0.89815 2.02031,3.53553 0.6143,1.47433 0.88606,3.07764 1.51523,4.54569 0.3867,0.90232 1.0762,1.64733 1.51522,2.52538 1.07803,2.15604 1.90777,4.43287 3.03046,6.56599 0.56544,1.07434 1.34687,2.02031 2.02031,3.03046 1.68358,2.52538 3.52145,4.95446 5.05076,7.57614 0.83549,1.43227 1.24,3.08262 2.02031,4.54569 1.91626,3.59299 4.05334,7.06382 6.06091,10.6066 0.85457,1.50806 1.61693,3.06946 2.52538,4.54569 1.78665,2.90331 3.7182,5.71499 5.55584,8.58629 0.85618,1.33778 1.60732,2.74453 2.52538,4.04061 5.65532,7.98398 5.96079,7.90401 12.12183,15.15229 2.55483,3.00568 5.05077,6.06092 7.57615,9.09138 0.84179,1.01015 1.6554,2.04447 2.52538,3.03045 1.65593,1.87672 3.33897,3.72993 5.05076,5.55584 0.81422,0.8685 1.74145,1.62946 2.52538,2.52538 1.57569,1.80079 3.03679,3.69874 4.54569,5.55584 0.67979,0.83667 1.31042,1.71409 2.0203,2.52538 1.64813,1.88358 3.41158,3.66448 5.05077,5.55584 0.55131,0.63614 1.01015,1.34687 1.51523,2.02031 1.34687,1.17851 2.77511,2.27004 4.04061,3.53553 0.59523,0.59524 0.91999,1.42507 1.51522,2.02031 5.01576,5.01575 1.8454,1.54754 5.05077,4.04061 1.01015,0.84179 2.0203,1.68359 3.03045,2.52538 0.33672,0.33672 0.64861,0.70025 1.01016,1.01015 0.81849,0.70157 1.71408,1.31042 2.52538,2.02031 0.53755,0.47036 0.9514,1.0767 1.51523,1.51523 0.6806,2.48095 3.10344,1.56388 4.54568,2.52538 0.59433,0.39621 0.95747,1.06901 1.51523,1.51523 0.33672,0.16835 0.67344,0.33671 1.01016,0.50507 0,0.16836 -0.11905,0.38603 0,0.50508 0.11904,0.11905 0.38602,-0.11905 0.50507,0 0.11905,0.11905 -0.11905,0.38603 0,0.50507 0.11905,0.11905 0.38603,-0.11904 0.50508,0 0.11905,0.11905 0.16836,0.50508 0,0.50508 -0.16836,0 0.16836,-0.50508 0,-0.50508 -0.2381,0 -0.29212,0.3986 -0.50508,0.50508 -0.13059,0.0653 -2.67246,0 -3.03046,0 -0.16835,0 -0.38602,0.11905 -0.50507,0 -0.11905,-0.11905 0.11905,-0.38603 0,-0.50508 -0.2381,-0.23809 -0.77206,0.2381 -1.01015,0 -0.11905,-0.11904 0.11904,-0.38602 0,-0.50507 -1.97118,-1.97118 -0.27126,0.11691 -1.51523,-0.50508 -0.42592,-0.21296 -0.58424,-0.79719 -1.01016,-1.01015 -0.30117,-0.15059 -0.77205,0.23809 -1.01015,0 -0.11905,-0.11905 0.11905,-0.38603 0,-0.50508 -0.67343,-0.67343 -0.50508,0.8418 -0.50508,-0.50507"
       id="path4281"
       inkscape:connector-curvature="0" />
    <rect
       style="fill:#ffffff;fill-rule:evenodd;stroke:#000000;stroke-width:1.41003931px;stroke-linecap:butt;stroke-linejoin:miter;stroke-opacity:1"
       id="rect3336-3-5"
       width="173.33621"
       height="22.823467"
       x="532.55542"
       y="195.45279" />
    <text
       xml:space="preserve"
       style="font-style:normal;font-weight:normal;font-size:40px;line-height:125%;font-family:sans-serif;letter-spacing:0px;word-spacing:0px;fill:#000000;fill-opacity:1;stroke:none;stroke-width:1px;stroke-linecap:butt;stroke-linejoin:miter;stroke-opacity:1"
       x="535.88593"
       y="209.895"
       id="text4140-8-0"
       sodipodi:linespacing="125%"><tspan
         sodipodi:role="line"
         id="tspan4142-7-8"
         x="535.88593"
         y="209.895"
         style="font-size:12.5px">Conventional</tspan></text>
    <path
       style="fill:none;fill-rule:evenodd;stroke:#000000;stroke-width:1px;stroke-linecap:butt;stroke-linejoin:miter;stroke-opacity:1"
       d="m 494.46967,203.32899 c 3.13326,1.37803 4.47772,1.74311 8.08122,2.02031 0.83932,0.0646 1.68874,-0.093 2.52538,0 0.68992,0.0767 1.33312,0.4069 2.02031,0.50507 0.5,0.0714 1.01702,-0.083 1.51523,0 0.52515,0.0875 1.00331,0.35882 1.51523,0.50508 0.66745,0.1907 1.33558,0.39095 2.0203,0.50507 0.33214,0.0554 0.67344,0 1.01015,0 0.16836,0 0.34536,-0.0532 0.50508,0 0.35714,0.11905 0.65301,0.38603 1.01015,0.50508 0.15972,0.0532 0.33672,0 0.50508,0 0.33672,0 0.67343,0 1.01015,0 0.84179,0 1.68359,0 2.52538,0 0.50508,0 1.01996,-0.0991 1.51523,0 0.36915,0.0738 0.64493,0.41377 1.01015,0.50508 0.32667,0.0817 0.67344,0 1.01016,0 0.33671,0 0.67343,0 1.01015,0 1.51523,0 3.03046,0 4.54569,0 0.12249,0 1.49898,0.0162 1.51522,0 0.11905,-0.11905 0,-0.33672 0,-0.50508 0,-0.16836 0,-0.33672 0,-0.50508 0,-1.16076 -0.46489,-0.69734 -1.01015,-1.51522 -0.70537,0.56044 -0.44917,-1.40343 -0.50507,-1.51523 -0.21296,-0.42592 -0.85957,-0.5584 -1.01016,-1.01016 -0.10648,-0.31943 0.15059,-0.70898 0,-1.01015 -0.0753,-0.15058 -0.38603,0.11905 -0.50507,0 -0.11905,-0.11905 0,-0.33672 0,-0.50508 0,-0.16835 0,-0.33671 0,-0.50507"
       id="path4304"
       inkscape:connector-curvature="0" />
    <rect
       style="fill:#ffffff;fill-rule:evenodd;stroke:#000000;stroke-width:1.41003931px;stroke-linecap:butt;stroke-linejoin:miter;stroke-opacity:1"
       id="rect3336-3-5-8"
       width="173.33621"
       height="22.823467"
       x="760.34479"
       y="193.93756" />
    <text
       xml:space="preserve"
       style="font-style:normal;font-weight:normal;font-size:40px;line-height:125%;font-family:sans-serif;letter-spacing:0px;word-spacing:0px;fill:#000000;fill-opacity:1;stroke:none;stroke-width:1px;stroke-linecap:butt;stroke-linejoin:miter;stroke-opacity:1"
       x="763.67529"
       y="208.37978"
       id="text4140-8-0-4"
       sodipodi:linespacing="125%"><tspan
         sodipodi:role="line"
         id="tspan4142-7-8-5"
         x="763.67529"
         y="208.37978"
         style="font-size:12.5px">Ion</tspan></text>
    <rect
       style="fill:#ffffff;fill-rule:evenodd;stroke:#000000;stroke-width:1.41003931px;stroke-linecap:butt;stroke-linejoin:miter;stroke-opacity:1"
       id="rect3336-3-5-8-0"
       width="173.33621"
       height="22.823467"
       x="761.35498"
       y="251.01118" />
    <text
       xml:space="preserve"
       style="font-style:normal;font-weight:normal;font-size:40px;line-height:125%;font-family:sans-serif;letter-spacing:0px;word-spacing:0px;fill:#000000;fill-opacity:1;stroke:none;stroke-width:1px;stroke-linecap:butt;stroke-linejoin:miter;stroke-opacity:1"
       x="764.68549"
       y="265.4534"
       id="text4140-8-0-4-4"
       sodipodi:linespacing="125%"><tspan
         sodipodi:role="line"
         id="tspan4142-7-8-5-9"
         x="764.68549"
         y="265.4534"
         style="font-size:12.5px">Plasmaarc</tspan></text>
    <path
       style="fill:none;fill-rule:evenodd;stroke:#000000;stroke-width:1px;stroke-linecap:butt;stroke-linejoin:miter;stroke-opacity:1"
       d="m 705.59155,205.85437 c 7.74451,0 15.48901,0 23.23351,0 2.18867,0 4.38111,-0.12852 6.56599,0 1.68907,0.0994 3.36139,0.41122 5.05077,0.50508 2.35339,0.13074 4.71404,0 7.07106,0 1.17852,0 2.3605,-0.0904 3.53554,0 1.02107,0.0785 2.01057,0.41236 3.03046,0.50507 0.83833,0.0762 1.68358,0 2.52538,0 3.19881,0 6.39763,0 9.59645,0 0.67343,0 1.34687,0 2.0203,0 0.16836,0 0.50508,-0.16835 0.50508,0 0,0.16836 -0.33672,0 -0.50508,0 -0.50508,0 -1.01015,0 -1.51523,0 -0.40303,0 -2.22236,0.10101 -2.52538,0 -0.35714,-0.11904 -0.69692,-0.29625 -1.01015,-0.50507 -0.19811,-0.13207 -0.27161,-0.45838 -0.50508,-0.50508 -0.66036,-0.13207 -1.34687,0 -2.0203,0 -0.16836,0 -0.33672,0 -0.50508,0 -0.16836,0 -0.35449,0.0753 -0.50508,0 -0.21295,-0.10648 -0.29211,-0.3986 -0.50507,-0.50507 -0.20026,-0.10013 -1.41197,0.10325 -1.51523,0 -0.11905,-0.11905 0.11905,-0.38603 0,-0.50508 -0.11905,-0.11905 -0.38603,0.11905 -0.50508,0 -0.11904,-0.11905 0.11905,-0.38603 0,-0.50508 -0.11904,-0.11905 -0.35449,0.0753 -0.50507,0 -0.21296,-0.10648 -0.29212,-0.39859 -0.50508,-0.50507 -0.15058,-0.0753 -0.33672,0 -0.50508,0 -0.50507,-0.16836 -1.0587,-0.23116 -1.51522,-0.50508 -4.69758,-2.81855 6.26722,1.59775 -4.04061,-2.52538 -0.64452,-0.25781 -1.39943,-0.19464 -2.02031,-0.50508 -1.08588,-0.54294 -2.00621,-1.36851 -3.03046,-2.0203 -0.82821,-0.52705 -1.64733,-1.07621 -2.52538,-1.51523 -7.72944,-3.31262 -0.74731,-0.0663 -5.05076,-2.52538 -0.65372,-0.37356 -1.30602,-0.77206 -2.02031,-1.01016 -1.3852,-0.46173 -0.81873,0.6965 -2.0203,-0.50507"
       id="path4348"
       inkscape:connector-curvature="0" />
    <path
       style="fill:none;fill-rule:evenodd;stroke:#000000;stroke-width:1px;stroke-linecap:butt;stroke-linejoin:miter;stroke-opacity:1"
       d="m 708.62201,214.94574 c 1.39242,5.56968 -0.27032,0.39127 1.01015,2.52539 0.38738,0.64562 0.53981,1.43237 1.01016,2.0203 0.23517,0.29397 0.76914,0.21587 1.01015,0.50508 0.62846,0.75415 0.94463,1.72654 1.51523,2.52538 0.27678,0.38749 0.7178,0.63427 1.01015,1.01015 1.26269,1.62346 2.67473,3.88643 4.04061,5.55584 0.98291,1.20133 2.03677,2.34311 3.03046,3.53553 0.69013,0.82816 1.29186,1.73072 2.0203,2.52539 0.99488,2.65483 3.78607,3.28099 5.55584,5.05076 1.2655,1.26549 2.27004,2.77511 3.53554,4.04061 0.59523,0.59524 1.3946,0.9521 2.0203,1.51523 1.59057,1.43151 2.95512,3.11417 4.54569,4.54568 1.15373,1.03836 2.3342,2.04755 3.53553,3.03046 3.41472,2.79386 0.83866,0.21142 5.05076,4.04061 0.88088,0.8008 1.573,1.8111 2.52539,2.52538 0.42591,0.31944 1.07224,0.20976 1.51522,0.50508 0.59433,0.39621 0.95747,1.06902 1.51523,1.51523 0.29397,0.23517 0.67344,0.33672 1.01016,0.50507 0.67343,0.33672 1.34687,0.67344 2.0203,1.01016 0.33672,0.16836 0.67344,0.33671 1.01015,0.50507 0,0.16836 -0.11904,0.38603 0,0.50508 0.11905,0.11905 0.35449,-0.0753 0.50508,0 0.21296,0.10648 0.29212,0.3986 0.50508,0.50508 0.1036,0.0518 1.444,0.0712 1.51522,0 0.0712,-0.0712 0.0518,-1.41163 0,-1.51523 -0.10647,-0.21296 -0.42978,-0.2792 -0.50507,-0.50508 -0.10648,-0.31944 0.066,-0.67997 0,-1.01015 -0.16836,-0.50508 -0.33672,-1.01015 -0.50508,-1.51523 -0.16836,-0.16836 -0.41665,-0.28401 -0.50507,-0.50508 -0.25781,-0.64451 -0.23164,-1.38227 -0.50508,-2.0203 -0.7175,-1.67416 -1.01771,-1.27214 -2.02031,-2.52538 -0.81265,-1.01582 -0.99067,-1.47628 -1.51522,-2.52539"
       id="path4350"
       inkscape:connector-curvature="0" />
    <rect
       style="fill:#ffffff;fill-rule:evenodd;stroke:#000000;stroke-width:1.41003931px;stroke-linecap:butt;stroke-linejoin:miter;stroke-opacity:1"
       id="rect3336-4"
       width="173.33621"
       height="22.823467"
       x="71.925842"
       y="38.879143" />
    <text
       xml:space="preserve"
       style="font-style:normal;font-weight:normal;font-size:40px;line-height:125%;font-family:sans-serif;letter-spacing:0px;word-spacing:0px;fill:#000000;fill-opacity:1;stroke:none;stroke-width:1px;stroke-linecap:butt;stroke-linejoin:miter;stroke-opacity:1"
       x="75.256363"
       y="53.321358"
       id="text4140-1"
       sodipodi:linespacing="125%"><tspan
         sodipodi:role="line"
         id="tspan4142-78"
         x="75.256363"
         y="53.321358"
         style="font-size:12.5px">AI</tspan></text>
    <rect
       style="fill:#ffffff;fill-rule:evenodd;stroke:#000000;stroke-width:1.41003931px;stroke-linecap:butt;stroke-linejoin:miter;stroke-opacity:1"
       id="rect3336-4-3"
       width="173.33621"
       height="22.823467"
       x="338.60611"
       y="40.899452" />
    <text
       xml:space="preserve"
       style="font-style:normal;font-weight:normal;font-size:40px;line-height:125%;font-family:sans-serif;letter-spacing:0px;word-spacing:0px;fill:#000000;fill-opacity:1;stroke:none;stroke-width:1px;stroke-linecap:butt;stroke-linejoin:miter;stroke-opacity:1"
       x="341.93665"
       y="55.341667"
       id="text4140-1-0"
       sodipodi:linespacing="125%"><tspan
         sodipodi:role="line"
         id="tspan4142-78-7"
         x="341.93665"
         y="55.341667"
         style="font-size:12.5px">AGI</tspan></text>
    <rect
       style="fill:#ffffff;fill-rule:evenodd;stroke:#000000;stroke-width:1.41003931px;stroke-linecap:butt;stroke-linejoin:miter;stroke-opacity:1"
       id="rect3336-4-1"
       width="173.33621"
       height="22.823467"
       x="339.61627"
       y="-34.861992" />
    <text
       xml:space="preserve"
       style="font-style:normal;font-weight:normal;font-size:40px;line-height:125%;font-family:sans-serif;letter-spacing:0px;word-spacing:0px;fill:#000000;fill-opacity:1;stroke:none;stroke-width:1px;stroke-linecap:butt;stroke-linejoin:miter;stroke-opacity:1"
       x="342.94678"
       y="-20.419777"
       id="text4140-1-5"
       sodipodi:linespacing="125%"><tspan
         sodipodi:role="line"
         id="tspan4142-78-4"
         x="342.94678"
         y="-20.419777"
         style="font-size:12.5px">Basic robotics</tspan></text>
    <rect
       style="fill:#ffffff;fill-rule:evenodd;stroke:#000000;stroke-width:1.41003931px;stroke-linecap:butt;stroke-linejoin:miter;stroke-opacity:1"
       id="rect3336-4-1-9"
       width="173.33621"
       height="22.823467"
       x="553.76862"
       y="-53.044735" />
    <text
       xml:space="preserve"
       style="font-style:normal;font-weight:normal;font-size:40px;line-height:125%;font-family:sans-serif;letter-spacing:0px;word-spacing:0px;fill:#000000;fill-opacity:1;stroke:none;stroke-width:1px;stroke-linecap:butt;stroke-linejoin:miter;stroke-opacity:1"
       x="557.09912"
       y="-38.60252"
       id="text4140-1-5-2"
       sodipodi:linespacing="125%"><tspan
         sodipodi:role="line"
         id="tspan4142-78-4-7"
         x="557.09912"
         y="-38.60252"
         style="font-size:12.5px">space robotics</tspan></text>
    <rect
       style="fill:#ffffff;fill-rule:evenodd;stroke:#000000;stroke-width:1.41003931px;stroke-linecap:butt;stroke-linejoin:miter;stroke-opacity:1"
       id="rect3336-4-1-9-3"
       width="173.33621"
       height="22.823467"
       x="553.76862"
       y="-9.1030998" />
    <text
       xml:space="preserve"
       style="font-style:normal;font-weight:normal;font-size:40px;line-height:125%;font-family:sans-serif;letter-spacing:0px;word-spacing:0px;fill:#000000;fill-opacity:1;stroke:none;stroke-width:1px;stroke-linecap:butt;stroke-linejoin:miter;stroke-opacity:1"
       x="557.09912"
       y="5.3391118"
       id="text4140-1-5-2-4"
       sodipodi:linespacing="125%"><tspan
         sodipodi:role="line"
         id="tspan4142-78-4-7-6"
         x="557.09912"
         y="5.3391118"
         style="font-size:12.5px">ground robotics</tspan></text>
    <path
       style="fill:none;fill-rule:evenodd;stroke:#000000;stroke-width:1px;stroke-linecap:butt;stroke-linejoin:miter;stroke-opacity:1"
       d="m 513.66257,-26.985791 c 2.54785,-1.455916 2.81655,-1.916049 5.05076,-2.525381 1.33941,-0.365292 2.73588,-0.535703 4.04061,-1.010152 0.57048,-0.207447 0.97229,-0.738683 1.51523,-1.010153 1.48309,-0.741543 2.99807,-1.425067 4.54569,-2.020305 0.64789,-0.249189 1.35542,-0.305611 2.0203,-0.505076 1.01989,-0.305967 2.03346,-0.636279 3.03046,-1.010153 0.35249,-0.132184 0.66413,-0.356781 1.01015,-0.505076 0.64885,-0.27808 3.05748,-1.269446 4.04061,-1.515229 3.47344,-0.86836 1.50368,0.0058 3.53554,-1.010153 7.11659,-3.558294 -2.83626,1.23552 4.04061,-1.515228 0.22106,-0.08843 0.29211,-0.398597 0.50507,-0.505077 0.47619,-0.238095 0.99873,-0.375951 1.51523,-0.505076 0.16333,-0.04083 0.35449,0.07529 0.50508,0 0.21296,-0.106479 0.29212,-0.398597 0.50507,-0.505076 0.4762,-0.238095 0.99873,-0.375951 1.51523,-0.505076 0.16334,-0.04083 0.38603,0.119047 0.50508,0 0.11905,-0.119048 -0.15058,-0.429784 0,-0.505077 0.40406,-0.20203 1.11117,0.202031 1.51523,0 0.1315,-0.06575 0.85342,-0.661812 0.50508,-1.010152 -0.2381,-0.238096 -0.77206,0.238095 -1.01016,0 -0.11905,-0.119048 0,-0.336718 0,-0.505077 -0.33671,0 -0.70898,0.150585 -1.01015,0 -0.15058,-0.07529 0.11905,-0.386028 0,-0.505076 -0.2662,-0.266198 -0.65301,-0.386028 -1.01015,-0.505076 -0.15972,-0.05324 -0.38603,0.119048 -0.50508,0 -0.2662,-0.266199 -0.23888,-0.743954 -0.50508,-1.010153 -2.3554,-2.355402 -0.59756,-0.367547 -2.52538,-1.010152 -1.5765,-0.525502 0.16836,-0.336718 -0.50507,-1.010153 -0.2381,-0.238095 -0.70899,0.150585 -1.01016,0 -0.21295,-0.106479 -0.33671,-0.336717 -0.50507,-0.505076"
       id="path4459"
       inkscape:connector-curvature="0" />
    <path
       style="fill:none;fill-rule:evenodd;stroke:#000000;stroke-width:1px;stroke-linecap:butt;stroke-linejoin:miter;stroke-opacity:1"
       d="m 512.65242,-18.90457 c 0.84179,1.178511 1.63622,2.392333 2.52538,3.535534 0.29235,0.375882 0.69658,0.651782 1.01015,1.010152 0.86588,0.989581 1.65179,2.047672 2.52538,3.030458 0.47455,0.533864 1.01015,1.010152 1.51523,1.5152287 0.84179,0.8417938 1.62946,1.7414473 2.52538,2.5253814 0.45684,0.3997295 1.02961,0.6459369 1.51523,1.0101525 0.55193,0.4139472 3.71726,3.0384779 4.54569,3.5355339 0.96844,0.5810638 2.0203,1.0101526 3.03046,1.5152289 0.67343,0.33671748 1.31532,0.74578351 2.0203,1.01015251 0.64996,0.24373618 1.36177,0.28556331 2.02031,0.50507628 0.35714,0.11904761 0.66413,0.35678077 1.01015,0.50507627 0.83333,0.35714284 1.66527,0.72344794 2.52538,1.01015254 0.15972,0.05324 0.33672,0 0.50508,0 0.31297,0 2.87242,-0.079014 3.03045,0 0.15059,0.075292 -0.11904,0.3860287 0,0.5050763 0.11905,0.1190476 0.33672,0 0.50508,0 0.16836,0 0.33672,0 0.50508,0 0.18548,0 1.99998,-0.020325 2.0203,0 0.11905,0.1190476 -0.11905,0.3860286 0,0.5050763 0.2381,0.2380952 0.77206,-0.2380953 1.01015,0 0.11905,0.1190476 -0.11904,0.3860286 0,0.5050762 0.11905,0.1190476 0.3545,-0.075292 0.50508,0 0.21296,0.1064795 0.29212,0.3985969 0.50508,0.5050763 0.34887,0.1744365 2.34809,-0.1772916 2.52538,0 0.11905,0.1190476 -0.11905,0.3860286 0,0.5050763 0.11905,0.1190476 0.38603,0.1190476 0.50507,0 0.11905,-0.1190477 0,-0.3367175 0,-0.5050763 0,-0.3367175 0,-0.673435 0,-1.0101525 0,-0.1683588 0.0753,-0.3544917 0,-0.5050763 -0.10648,-0.2129589 -0.39859,-0.2921174 -0.50507,-0.5050763 -0.15035,-0.3007049 0.14174,-2.10014163 0,-2.52538136 -0.11905,-0.35714284 -0.38603,-0.65300964 -0.50508,-1.01015254 -0.0532,-0.1597191 0.0753,-0.3544916 0,-0.5050763 -0.74317,-1.486343 -0.50508,0.7840222 -0.50508,-1.5152288 0,-0.1683588 0,-0.3367175 0,-0.5050763 0,-0.1683587 0.0753,-0.3544916 0,-0.5050762 -0.10647,-0.2129589 -0.67343,-0.3367176 -0.50507,-0.5050763 0.16836,-0.1683588 0.33672,0.3367175 0.50507,0.5050763"
       id="path4461"
       inkscape:connector-curvature="0" />
    <path
       style="fill:none;fill-rule:evenodd;stroke:#000000;stroke-width:1px;stroke-linecap:butt;stroke-linejoin:miter;stroke-opacity:1"
       d="m 245.97214,48.270574 c 5.05077,0 10.10153,0 15.15229,0 2.35703,0 4.71405,0 7.07107,0 1.34687,0 2.69672,-0.08959 4.04061,0 1.18784,0.07919 2.3477,0.425887 3.53554,0.505076 2.68777,0.179185 5.39344,-0.179185 8.08122,0 10.43328,0.695553 -3.95037,0.505077 7.57614,0.505077 2.52538,0 5.05076,0 7.57614,0 1.01016,0 2.02031,0 3.03046,0 0.16836,0 0.33672,0 0.50508,0 0.16836,0 0.35449,-0.07529 0.50507,0 0.21296,0.106479 0.29212,0.398597 0.50508,0.505076 0.15371,0.07686 1.28776,0 1.51523,0 0.81225,0 2.87355,-0.11033 3.53553,0 0.52516,0.08752 0.99008,0.417551 1.51523,0.505076 0.99641,0.166068 2.03046,-0.142857 3.03046,0 0.68718,0.09817 1.33039,0.428419 2.0203,0.505076 1.67329,0.185922 3.37748,-0.185921 5.05077,0 0.68991,0.07666 1.33312,0.406908 2.0203,0.505077 0.5,0.07143 1.01015,0 1.51523,0 0.84179,0 1.68359,0 2.52538,0 2.69374,0 5.38748,0 8.08122,0 0.16836,0 0.33672,0 0.50508,0 0.16836,0 0.38603,0.119047 0.50508,0 0.11904,-0.119048 -0.11905,-0.386029 0,-0.505077 0.11904,-0.119047 0.38602,0.119048 0.50507,0 0.11905,-0.119047 0,-0.336717 0,-0.505076 0,-0.168359 0.11905,-0.386028 0,-0.505076 -0.11905,-0.119048 -0.38603,0.119048 -0.50507,0 -0.11905,-0.119048 0.0753,-0.354492 0,-0.505076 -0.10648,-0.212959 -0.3986,-0.292118 -0.50508,-0.505077 -0.0753,-0.150584 0.0753,-0.354491 0,-0.505076 -0.10648,-0.212959 -0.3986,-0.292117 -0.50508,-0.505076 -0.10013,-0.200259 0.10326,-1.411973 0,-1.515229 -0.11904,-0.119048 -0.42978,0.150585 -0.50507,0 -0.15059,-0.301169 0.10648,-0.690714 0,-1.010153 -0.0753,-0.225876 -0.3986,-0.292117 -0.50508,-0.505076 -0.0753,-0.150584 0,-0.336717 0,-0.505076 -0.16836,-0.336718 -0.29625,-0.696918 -0.50508,-1.010153 -0.13207,-0.198107 -0.45838,-0.271604 -0.50507,-0.505076 -0.13207,-0.660357 0,-1.34687 0,-2.020305 0,-0.168359 0.0753,-0.354492 0,-0.505076 -0.10648,-0.212959 -0.33672,-0.336718 -0.50508,-0.505077"
       id="path4463"
       inkscape:connector-curvature="0" />
    <path
       style="fill:none;fill-rule:evenodd;stroke:#000000;stroke-width:1px;stroke-linecap:butt;stroke-linejoin:miter;stroke-opacity:1"
       d="m 242.94169,44.73504 c 1.72958,0.52761 1.56117,-1.538199 2.52538,-2.020305 0.47619,-0.238095 1.03904,-0.266981 1.51523,-0.505076 0.54294,-0.27147 0.98818,-0.708983 1.51523,-1.010153 0.65372,-0.373554 1.37468,-0.622776 2.0203,-1.010152 0.20417,-0.122499 0.30697,-0.373005 0.50508,-0.505077 0.81681,-0.544544 1.72654,-0.944632 2.52538,-1.515228 0.38749,-0.27678 0.65178,-0.696579 1.01015,-1.010153 0.98958,-0.865883 1.99252,-1.718096 3.03046,-2.525381 0.47916,-0.372678 1.00461,-0.681899 1.51523,-1.010153 1.84649,-1.187033 3.71534,-2.339214 5.55584,-3.535534 1.52687,-0.992466 2.92901,-2.192184 4.54568,-3.030457 2.94405,-1.526542 6.10926,-2.58985 9.09138,-4.040611 3.25057,-1.581358 6.36326,-3.434167 9.59645,-5.050762 1.48308,-0.741544 3.1293,-1.15816 4.54568,-2.020305 2.47423,-1.506055 4.64247,-3.472175 7.07107,-5.050763 0.94693,-0.615502 2.0203,-1.0101526 3.03046,-1.5152289 1.51523,-0.8417938 3.10344,-1.5638865 4.54568,-2.5253814 0.59433,-0.3962144 1.01016,-1.0101525 1.51523,-1.5152288 1.01016,-0.5050763 2.07274,-0.916656 3.03046,-1.5152288 0.40381,-0.2523805 0.67344,-0.673435 1.01015,-1.0101525 0.8418,-0.8417938 1.58568,-1.7944997 2.52538,-2.52538141 0.59433,-0.46225017 1.37468,-0.62277673 2.02031,-1.01015255 4.92641,-2.95584734 1.40618,-0.84452784 4.54569,-3.53553394 0.55088,-1.3987491 2.05921,-1.2918737 3.03045,-2.0203051 2.34326,0.4321891 0.58092,-1.0859965 1.01016,-1.5152288 1.04502,-1.0450208 -0.0409,1.5969302 1.01015,-0.5050763 0.0753,-0.1505846 -0.0753,-0.3544916 0,-0.5050762 0.10648,-0.2129589 0.373,-0.3069691 0.50507,-0.5050763 0.20883,-0.313235 0.23888,-0.743954 0.50508,-1.010153 1.22673,-1.22673 0.74167,0.150193 1.51523,-1.010152 0.20882,-0.313235 0.23888,-0.743954 0.50508,-1.010153 0.26619,-0.266198 0.74395,-0.238877 1.01015,-0.505076 0.2662,-0.266198 0.23888,-0.743954 0.50508,-1.010152 0.11904,-0.119048 0.35449,0.07529 0.50507,0 0.21296,-0.10648 0.30697,-0.373005 0.50508,-0.505077 0.31323,-0.208823 0.74395,-0.238877 1.01015,-0.505076 0.11905,-0.119048 -0.11905,-0.386029 0,-0.505076 0.11905,-0.119048 0.34536,0.05324 0.50508,0 0.35714,-0.119048 0.69691,-0.296253 1.01015,-0.505077 0.39621,-0.264142 0.58423,-0.797193 1.01015,-1.010152 0.20026,-0.100129 1.41197,0.103256 1.51523,0 0.11905,-0.119048 -0.11905,-0.386029 0,-0.505076 0.11905,-0.119048 0.38603,0.119047 0.50508,0 0.11904,-0.119048 0.11904,-0.386029 0,-0.505077 -0.11905,-0.119047 -0.33672,0 -0.50508,0 -0.67343,0 -1.34687,0 -2.0203,0 -0.33672,0 -0.69072,0.10648 -1.01016,0 -0.35714,-0.119047 -0.65301,-0.386028 -1.01015,-0.505076 -0.31944,-0.106479 -0.69071,0.10648 -1.01015,0 -0.35715,-0.119048 -0.64493,-0.413771 -1.01015,-0.505076 -0.32667,-0.08167 -0.68349,0.08167 -1.01016,0 -0.36522,-0.09131 -0.64493,-0.413771 -1.01015,-0.505076 -0.32666,-0.08167 -0.68349,0.08167 -1.01015,0 -0.36522,-0.09131 -0.64818,-0.401655 -1.01016,-0.505077 -0.82543,-0.235838 -1.69994,-0.269238 -2.52538,-0.505076 -0.36197,-0.103422 -0.641,-0.431246 -1.01015,-0.505076 -0.49527,-0.09905 -1.01015,0 -1.51523,0 -1.01015,0 -2.0203,0 -3.03046,0"
       id="path4465"
       inkscape:connector-curvature="0" />
    <ellipse
       style="fill:#000080"
       id="path4471"
       cx="29.041883"
       cy="731.8913"
       rx="4.7982244"
       ry="5.8083773" />
    <ellipse
       style="fill:#000080"
       id="path4483"
       cx="608.36438"
       cy="152.82137"
       rx="6.3134532"
       ry="6.0609155" />
    <text
       xml:space="preserve"
       style="font-style:normal;font-weight:normal;font-size:40px;line-height:125%;font-family:sans-serif;letter-spacing:0px;word-spacing:0px;fill:#000000;fill-opacity:1;stroke:none;stroke-width:1px;stroke-linecap:butt;stroke-linejoin:miter;stroke-opacity:1"
       x="37.778908"
       y="734.58221"
       id="text4140-6"
       sodipodi:linespacing="125%"><tspan
         sodipodi:role="line"
         id="tspan4142-9"
         x="37.778908"
         y="734.58221"
         style="font-size:12.5px">Expansion</tspan></text>
    <rect
       style="fill:#ffffff;fill-rule:evenodd;stroke:#000000;stroke-width:1.41003931px;stroke-linecap:butt;stroke-linejoin:miter;stroke-opacity:1"
       id="rect3336-3-1-3"
       width="173.33621"
       height="22.823467"
       x="75.966461"
       y="502.03409" />
    <text
       xml:space="preserve"
       style="font-style:normal;font-weight:normal;font-size:40px;line-height:125%;font-family:sans-serif;letter-spacing:0px;word-spacing:0px;fill:#000000;fill-opacity:1;stroke:none;stroke-width:1px;stroke-linecap:butt;stroke-linejoin:miter;stroke-opacity:1"
       x="79.296997"
       y="516.47626"
       id="text4140-8-9-8"
       sodipodi:linespacing="125%"><tspan
         sodipodi:role="line"
         id="tspan4142-7-9-2"
         x="79.296997"
         y="516.47626"
         style="font-size:12.5px">Laser</tspan></text>
    <rect
       style="fill:#ffffff;fill-rule:evenodd;stroke:#000000;stroke-width:1.41003931px;stroke-linecap:butt;stroke-linejoin:miter;stroke-opacity:1"
       id="rect3336-3-1-3-4"
       width="173.33621"
       height="22.823467"
       x="542.15186"
       y="367.17871" />
    <text
       xml:space="preserve"
       style="font-style:normal;font-weight:normal;font-size:40px;line-height:125%;font-family:sans-serif;letter-spacing:0px;word-spacing:0px;fill:#000000;fill-opacity:1;stroke:none;stroke-width:1px;stroke-linecap:butt;stroke-linejoin:miter;stroke-opacity:1"
       x="545.48236"
       y="381.62091"
       id="text4140-8-9-8-6"
       sodipodi:linespacing="125%"><tspan
         sodipodi:role="line"
         id="tspan4142-7-9-2-8"
         x="545.48236"
         y="381.62091"
         style="font-size:12.5px">nuclear science</tspan></text>
    <ellipse
       style="fill:#ff0000"
       id="path4471-6"
       cx="30.304579"
       cy="755.37732"
       rx="4.7982244"
       ry="5.8083773" />
    <text
       xml:space="preserve"
       style="font-style:normal;font-weight:normal;font-size:40px;line-height:125%;font-family:sans-serif;letter-spacing:0px;word-spacing:0px;fill:#000000;fill-opacity:1;stroke:none;stroke-width:1px;stroke-linecap:butt;stroke-linejoin:miter;stroke-opacity:1"
       x="37.927158"
       y="758.82581"
       id="text4140-6-6"
       sodipodi:linespacing="125%"><tspan
         sodipodi:role="line"
         id="tspan4142-9-1"
         x="37.927158"
         y="758.82581"
         style="font-size:12.5px">Offensive</tspan></text>
    <rect
       style="fill:#ffffff;fill-rule:evenodd;stroke:#000000;stroke-width:1.41003931px;stroke-linecap:butt;stroke-linejoin:miter;stroke-opacity:1"
       id="rect3336-3-1-3-4-7"
       width="173.33621"
       height="22.823467"
       x="544.67725"
       y="418.19141" />
    <text
       xml:space="preserve"
       style="font-style:normal;font-weight:normal;font-size:40px;line-height:125%;font-family:sans-serif;letter-spacing:0px;word-spacing:0px;fill:#000000;fill-opacity:1;stroke:none;stroke-width:1px;stroke-linecap:butt;stroke-linejoin:miter;stroke-opacity:1"
       x="548.00775"
       y="432.63361"
       id="text4140-8-9-8-6-6"
       sodipodi:linespacing="125%"><tspan
         sodipodi:role="line"
         id="tspan4142-7-9-2-8-1"
         x="548.00775"
         y="432.63361"
         style="font-size:12.5px">chemical explosives</tspan></text>
    <rect
       style="fill:#999999;fill-rule:evenodd;stroke:#000000;stroke-width:1.41003931px;stroke-linecap:butt;stroke-linejoin:miter;stroke-opacity:1"
       id="rect3336-3-1-3-49"
       width="173.33621"
       height="22.823467"
       x="79.501984"
       y="547.49097" />
    <text
       xml:space="preserve"
       style="font-style:normal;font-weight:normal;font-size:40px;line-height:125%;font-family:sans-serif;letter-spacing:0px;word-spacing:0px;fill:#000000;fill-opacity:1;stroke:none;stroke-width:1px;stroke-linecap:butt;stroke-linejoin:miter;stroke-opacity:1"
       x="82.83252"
       y="561.93311"
       id="text4140-8-9-8-2"
       sodipodi:linespacing="125%"><tspan
         sodipodi:role="line"
         id="tspan4142-7-9-2-9"
         x="82.83252"
         y="561.93311"
         style="font-size:12.5px">Railgun</tspan></text>
    <ellipse
       style="fill:#ff0000"
       id="path4471-6-9"
       cx="89.398499"
       cy="578.09564"
       rx="4.7982244"
       ry="5.8083773" />
    <ellipse
       style="fill:#ff0000"
       id="path4471-6-4"
       cx="86.368042"
       cy="534.15393"
       rx="4.7982244"
       ry="5.8083773" />
    <rect
       style="fill:#ffffff;fill-rule:evenodd;stroke:#000000;stroke-width:1.41003931px;stroke-linecap:butt;stroke-linejoin:miter;stroke-opacity:1"
       id="rect3336-3-1-72"
       width="173.33621"
       height="22.823467"
       x="547.20264"
       y="121.20657" />
    <text
       xml:space="preserve"
       style="font-style:normal;font-weight:normal;font-size:40px;line-height:125%;font-family:sans-serif;letter-spacing:0px;word-spacing:0px;fill:#000000;fill-opacity:1;stroke:none;stroke-width:1px;stroke-linecap:butt;stroke-linejoin:miter;stroke-opacity:1"
       x="550.53314"
       y="135.64879"
       id="text4140-8-9-97"
       sodipodi:linespacing="125%"><tspan
         sodipodi:role="line"
         id="tspan4142-7-9-1"
         x="550.53314"
         y="135.64879"
         style="font-size:12.5px">meta - spacefaring</tspan></text>
    <path
       style="fill:none;fill-rule:evenodd;stroke:#000000;stroke-width:1px;stroke-linecap:butt;stroke-linejoin:miter;stroke-opacity:1"
       d="m 550.53314,141.20461 c -1.34687,1.34687 -2.69374,2.69374 -4.04061,4.04061 -0.33672,0 -0.77206,-0.2381 -1.01016,0 -0.53239,0.5324 -0.5925,1.39383 -1.01015,2.0203 -0.26414,0.39622 -0.67343,0.67344 -1.01015,1.01016 -1.01015,1.01015 -1.94581,2.10075 -3.03046,3.03045 -12.98781,11.13241 1.19717,-1.14373 -6.06091,4.04061 -12.85747,9.18391 -0.40629,0.50694 -7.07107,6.06092 -1.29337,1.07781 -2.74724,1.95265 -4.04061,3.03046 -0.73164,0.6097 -1.28867,1.4106 -2.02031,2.0203 -1.29336,1.07781 -2.74724,1.95265 -4.04061,3.03046 -1.8291,1.52425 -3.36717,3.36718 -5.05076,5.05076 -1.34687,1.34687 -2.85071,2.55324 -4.04061,4.04061 -0.47035,0.58794 -0.5584,1.41797 -1.01015,2.02031 -1.14286,1.52381 -2.85072,2.55324 -4.04061,4.04061 -0.75841,0.94801 -1.29188,2.05921 -2.02031,3.03046 -1.61624,2.15499 -1.88562,0.26937 -4.04061,4.04061 -1.17348,2.05359 -1.01015,3.93304 -1.01015,6.06091 0,0.67344 0.30117,1.41797 0,2.02031 -0.15058,0.30117 -0.77206,-0.2381 -1.01015,0 -0.2381,0.23809 0.15058,0.70898 0,1.01015 -0.21296,0.42592 -0.7972,0.58423 -1.01016,1.01015 -0.15058,0.30117 0.10648,0.69072 0,1.01015 -0.23809,0.71429 -0.77205,1.30602 -1.01015,2.02031 -0.10648,0.31944 0.15059,0.70898 0,1.01015 -0.21296,0.42592 -0.74601,0.61394 -1.01015,1.01015 -1.91366,-0.11503 -0.67344,2.35703 -1.01015,3.03046 -0.21296,0.42592 -0.85957,0.5584 -1.01016,1.01015 -0.21295,0.63888 0.21296,1.38143 0,2.02031 -0.15058,0.45175 -0.79719,0.58423 -1.01015,1.01015 -0.15058,0.30117 0.15059,0.70899 0,1.01015 -0.21296,0.42592 -0.79719,0.58424 -1.01015,1.01016 -0.15059,0.30117 0,0.67343 0,1.01015 0,0.67343 0.21296,1.38143 0,2.0203 -0.15059,0.45176 -0.67344,0.67344 -1.01015,1.01016 -0.33672,1.01015 -0.80133,1.98634 -1.01016,3.03045 -0.13207,0.66036 0,1.34688 0,2.02031 0,0.33672 0.15059,0.70898 0,1.01015 -1.54026,3.08052 -0.80081,-1.84751 -2.0203,3.03046 -0.21496,0.85986 0.28995,4.47087 0,5.05076 -0.21296,0.42592 -0.79719,0.58424 -1.01015,1.01016 -0.15059,0.30116 0,0.67343 0,1.01015 0,0.67343 0,1.34687 0,2.0203 0,2.35703 0,4.71405 0,7.07107 0,2.35702 0,4.71405 0,7.07107 0,0.45493 -0.15372,2.72303 0,3.03046 0.21296,0.42591 0.79719,0.58423 1.01015,1.01015 0.15058,0.30117 0,0.67343 0,1.01015 0,0.33672 0,0.67344 0,1.01015 0,1.68359 0,3.36718 0,5.05077 0,3.70389 0,7.40778 0,11.11167 0,0.33672 0,0.67344 0,1.01016 0,0.33671 0.23809,0.77205 0,1.01015 -0.2381,0.2381 -0.77206,-0.2381 -1.01015,0 -0.2381,0.2381 0,0.67343 0,1.01015 0,1.68359 0,3.36718 0,5.05077"
       id="path4719"
       inkscape:connector-curvature="0" />
    <path
       style="fill:none;fill-rule:evenodd;stroke:#000000;stroke-width:1px;stroke-linecap:butt;stroke-linejoin:miter;stroke-opacity:1"
       d="m 590.93924,122.01171 c 3.59026,-2.15416 7.20317,-4.49751 11.11168,-6.06091 1.28902,-0.51561 2.73317,-0.54321 4.04061,-1.01016 26.27805,-9.38501 -7.55369,1.20034 22.22335,-7.07107 2.0519,-0.56997 3.98924,-1.52704 6.06092,-2.0203 5.01072,-1.19303 10.11906,-1.93628 15.15229,-3.03046 9.17758,-1.99513 18.14437,-4.867335 27.27412,-7.071066 3.33799,-0.805722 6.7556,-1.248169 10.10152,-2.020305 12.05138,-2.781088 13.6873,-3.333426 23.23351,-6.060915 16.18979,-4.625653 9.49104,-2.490246 20.20305,-6.060915 0.64329,-0.21443 11.89747,-3.768095 14.14214,-5.050763 3.16227,-1.807016 5.9895,-4.15207 9.09137,-6.060915 1.28247,-0.789211 2.82278,-1.134609 4.04061,-2.020305 2.51062,-1.82591 4.64695,-4.121624 7.07107,-6.060916 0.94801,-0.758412 2.11679,-1.220846 3.03045,-2.020305 1.79185,-1.567868 3.36718,-3.367175 5.05077,-5.050763 0.67343,-0.673435 1.51554,-1.212687 2.0203,-2.020305 1.19715,-1.915433 1.77752,-4.181505 3.03046,-6.060915 0.79243,-1.188643 2.29546,-1.805468 3.03046,-3.030458 9.70729,-16.17882 -0.37871,-1.262892 4.04061,-10.101525 1.21405,-2.428105 2.82656,-4.642963 4.04061,-7.071068 0.97282,-1.945641 1.37299,-5.129142 2.0203,-7.071068 0.2381,-0.714285 0.90368,-1.274949 1.01016,-2.020305 0.28756,-2.012977 0,-6.514725 0,-9.0913726 0,-0.771162 0.21214,-5.4244694 0,-6.0609153 -0.2381,-0.7142857 -0.77206,-1.3060194 -1.01016,-2.02030509 -0.10648,-0.31943828 0.15059,-0.70898324 0,-1.01015254 -0.21296,-0.42591771 -0.74601,-0.61393812 -1.01015,-1.01015257 -0.41765,-0.62647 -0.67343,-1.34687 -1.01015,-2.0203051 -0.33672,-0.673435 -0.67344,-1.34687 -1.01015,-2.0203051 -0.33672,-0.673435 -0.53981,-1.4323708 -1.01016,-2.020305 -0.89242,-1.1155269 -2.0203,-2.0203051 -3.03045,-3.0304577 -2.02031,-2.020305 -4.04061,-4.04061 -6.06092,-6.060915 -2.02031,-2.020305 -4.04061,-4.04061 -6.06092,-6.060916 -0.67343,-0.673435 -1.2584,-1.448876 -2.0203,-2.020305 -0.60234,-0.451754 -1.37468,-0.622776 -2.02031,-1.010152 -1.04104,-0.624625 -2.05921,-1.291874 -3.03045,-2.020305 -0.38096,-0.285715 -0.58424,-0.797194 -1.01016,-1.010153 -0.95238,-0.47619 -2.07807,-0.533962 -3.03045,-1.010152 -0.42592,-0.212959 -0.6292,-0.724439 -1.01016,-1.010153 -0.97124,-0.728431 -1.98941,-1.39568 -3.03045,-2.020305 -3.05778,-1.834667 -1.10113,-0.09097 -3.03046,-2.020305 -0.0303,-0.03028 -3.6326,-3.836604 -4.04061,-4.04061 -0.60234,-0.30117 -1.54412,0.47619 -2.02031,0 -0.23809,-0.238095 0.2381,-0.772058 0,-1.010153 -0.23809,-0.238095 -0.70898,0.150585 -1.01015,0 -0.42592,-0.212959 -0.58423,-0.797193 -1.01015,-1.010152 -0.548,-0.273998 -3.76421,0.2764 -4.04061,0 -0.2381,-0.238096 0.23809,-0.772058 0,-1.010153 -0.24308,-0.243074 -3.79754,0.243074 -4.04061,0 -0.2381,-0.238095 0.23809,-0.772057 0,-1.010152 -0.2381,-0.238096 -0.67344,0 -1.01015,0 -0.70261,0 -4.68546,0.182652 -5.05077,0 -0.42591,-0.212959 -0.58423,-0.797194 -1.01015,-1.010153 -0.30117,-0.150585 -0.77206,0.238095 -1.01015,0 -0.2381,-0.238095 0.23809,-0.772057 0,-1.010153 -0.0325,-0.03249 -2.78547,0 -3.03046,0"
       id="path4723"
       inkscape:connector-curvature="0" />
    <path
       style="fill:none;fill-rule:evenodd;stroke:#000000;stroke-width:1px;stroke-linecap:butt;stroke-linejoin:miter;stroke-opacity:1"
       d="m 548.51283,125.04217 c -7.07107,0 -14.14213,0 -21.2132,0 -2.02031,0 -4.04061,0 -6.06092,0 -0.33671,0 -0.67343,0 -1.01015,0 -0.33672,0 -0.70898,0.15058 -1.01015,0 -0.42592,-0.21296 -0.58424,-0.7972 -1.01015,-1.01015 -0.30117,-0.15059 -0.67344,0 -1.01016,0 -1.68358,0 -3.36717,0 -5.05076,0 -0.33672,0 -0.67343,0 -1.01015,0 -0.33672,0 -0.70899,0.15058 -1.01015,0 -0.42592,-0.21296 -0.58424,-0.7972 -1.01016,-1.01016 -0.30117,-0.15058 -0.70898,0.15059 -1.01015,0 -0.42592,-0.21296 -0.58423,-0.79719 -1.01015,-1.01015 -0.30743,-0.15371 -2.57553,0 -3.03046,0 -2.35702,0 -4.71405,0 -7.07107,0"
       id="path4725"
       inkscape:connector-curvature="0" />
    <path
       style="fill:none;fill-rule:evenodd;stroke:#000000;stroke-width:1px;stroke-linecap:butt;stroke-linejoin:miter;stroke-opacity:1"
       d="m 588.91893,144.23507 c 0,1.34687 0,2.69374 0,4.04061 -0.33671,0.33671 -0.85956,0.5584 -1.01015,1.01015 -0.30304,0.90914 0.30305,2.12132 0,3.03046 -0.23809,0.71428 -0.5925,1.39383 -1.01015,2.0203 -0.26414,0.39622 -0.89466,0.54818 -1.01015,1.01015 0,7.16474 0.71428,0.59174 -1.01016,4.04061 -0.30117,0.60234 0.47619,1.54412 0,2.02031 -0.23809,0.23809 -0.85956,-0.30117 -1.01015,0 -0.31745,0.6349 0.31745,3.40571 0,4.04061 -3.35025,3.35025 0.47619,-0.95238 -1.01015,2.0203 -0.21296,0.42592 -0.85957,0.5584 -1.01015,1.01016 -0.21296,0.63887 0,1.34687 0,2.0203 0,0.33672 0.15058,0.70899 0,1.01016 -0.21296,0.42591 -0.7972,0.58423 -1.01016,1.01015 -0.27399,0.54799 0.2764,3.76421 0,4.04061 -0.23809,0.23809 -0.77205,-0.2381 -1.01015,0 -0.23809,0.23809 0,0.67343 0,1.01015 0,2.02031 0,4.04061 0,6.06092 0,0.33671 0.2381,0.77205 0,1.01015 -0.23809,0.23809 -0.77206,-0.2381 -1.01015,0 -0.2381,0.23809 0,0.67343 0,1.01015 0,0.33672 0,0.67344 0,1.01015 0,3.03046 0,6.06092 0,9.09138"
       id="path4727"
       inkscape:connector-curvature="0" />
    <ellipse
       style="fill:#000080"
       id="path4471-0"
       cx="348.50266"
       cy="72.514236"
       rx="4.7982244"
       ry="5.8083773" />
    <rect
       style="fill:#ffffff;fill-rule:evenodd;stroke:#000000;stroke-width:1.41003931px;stroke-linecap:butt;stroke-linejoin:miter;stroke-opacity:1"
       id="rect3336-3-1-3-4-7-9"
       width="173.33621"
       height="22.823467"
       x="86.067986"
       y="651.03162" />
    <text
       xml:space="preserve"
       style="font-style:normal;font-weight:normal;font-size:40px;line-height:125%;font-family:sans-serif;letter-spacing:0px;word-spacing:0px;fill:#000000;fill-opacity:1;stroke:none;stroke-width:1px;stroke-linecap:butt;stroke-linejoin:miter;stroke-opacity:1"
       x="89.398491"
       y="665.47382"
       id="text4140-8-9-8-6-6-4"
       sodipodi:linespacing="125%"><tspan
         sodipodi:role="line"
         id="tspan4142-7-9-2-8-1-4"
         x="89.398491"
         y="665.47382"
         style="font-size:12.5px">mass driver</tspan></text>
    <ellipse
       style="fill:#ff0000"
       id="path4471-6-9-6"
       cx="94.954346"
       cy="683.65656"
       rx="4.7982244"
       ry="5.8083773" />
    <ellipse
       style="fill:#000080"
       id="path4471-3"
       cx="115.15739"
       cy="684.66669"
       rx="4.7982244"
       ry="5.8083773" />
    <ellipse
       style="fill:#000080"
       id="path4471-1"
       cx="336.3808"
       cy="380.61075"
       rx="4.7982244"
       ry="5.8083773" />
    <ellipse
       style="fill:#ff0000"
       id="path4471-6-2"
       cx="628.31488"
       cy="153.32643"
       rx="4.7982244"
       ry="5.8083773" />
    <ellipse
       style="fill:#000080"
       id="path4471-4"
       cx="772.76672"
       cy="283.63611"
       rx="4.7982244"
       ry="5.8083773" />
    <rect
       style="fill:#ffffff;fill-rule:evenodd;stroke:#000000;stroke-width:1.41003931px;stroke-linecap:butt;stroke-linejoin:miter;stroke-opacity:1"
       id="rect3336-3-1-3-4-4"
       width="173.33621"
       height="22.823467"
       x="760.84985"
       y="315.66095" />
    <text
       xml:space="preserve"
       style="font-style:normal;font-weight:normal;font-size:40px;line-height:125%;font-family:sans-serif;letter-spacing:0px;word-spacing:0px;fill:#000000;fill-opacity:1;stroke:none;stroke-width:1px;stroke-linecap:butt;stroke-linejoin:miter;stroke-opacity:1"
       x="764.18036"
       y="330.10315"
       id="text4140-8-9-8-6-7"
       sodipodi:linespacing="125%"><tspan
         sodipodi:role="line"
         id="tspan4142-7-9-2-8-4"
         x="764.18036"
         y="330.10315"
         style="font-size:12.5px">nuclear thrusters</tspan></text>
    <path
       style="fill:none;fill-rule:evenodd;stroke:#000000;stroke-width:1px;stroke-linecap:butt;stroke-linejoin:miter;stroke-opacity:1"
       d="m 715.188,368.48893 c 0.67344,-1.34687 1.24556,-2.74936 2.02031,-4.04061 0.245,-0.40833 0.74601,-0.61394 1.01015,-1.01015 0.83529,-1.25294 1.07961,-2.86474 2.0203,-4.04061 1.47828,-1.84784 3.5725,-3.20292 5.05077,-5.05076 0.75841,-0.94802 1.29187,-2.05922 2.0203,-3.03046 1.51523,-2.02031 1.01016,0 3.03046,-3.03046 0.18678,-0.28017 -0.23809,-0.77206 0,-1.01015 0.2381,-0.2381 0.77206,0.23809 1.01015,0 0.5324,-0.5324 0.47776,-1.48791 1.01016,-2.02031 0.53239,-0.53239 1.30601,-0.77205 2.0203,-1.01015 0.31944,-0.10648 0.77206,0.2381 1.01015,0 0.2381,-0.23809 -0.23809,-0.77206 0,-1.01015 2.69374,0 -0.33671,0.33672 1.01016,-1.01015 0.50507,-0.50508 2.52538,0.50507 3.03045,0 0.2381,-0.2381 -0.23809,-0.77206 0,-1.01016 0.2381,-0.23809 0.77206,0.2381 1.01016,0 0.23809,-0.23809 -0.30117,-0.85957 0,-1.01015 0.60233,-0.30117 1.38142,0.21296 2.0203,0 0.45175,-0.15058 0.58424,-0.79719 1.01015,-1.01015 0.80813,-0.40406 2.22234,0.40406 3.03046,0 0.30117,-0.15059 -0.23809,-0.77206 0,-1.01015 0.2381,-0.2381 0.69072,0.10647 1.01015,0 1.82832,0.60884 1.87871,-1.63639 3.03046,-2.02031 0.63888,-0.21296 1.41797,0.30117 2.02031,0 0.30117,-0.15058 -0.30117,-0.85957 0,-1.01015 0.60233,-0.30117 1.38142,0.21296 2.0203,0 0.45176,-0.15059 0.58424,-0.7972 1.01015,-1.01016 0.30117,-0.15058 0.70899,0.15059 1.01016,0 0.42591,-0.21295 0.58423,-0.79719 1.01015,-1.01015 0.40052,-0.20026 2.82394,0.20651 3.03046,0 0.23809,-0.23809 -0.2381,-0.77205 0,-1.01015 0.23809,-0.2381 0.67343,0 1.01015,0 0.33672,0 0.67343,0 1.01015,0"
       id="path4861"
       inkscape:connector-curvature="0" />
    <path
       style="fill:none;fill-rule:evenodd;stroke:#000000;stroke-width:1px;stroke-linecap:butt;stroke-linejoin:miter;stroke-opacity:1"
       d="m 758.62456,332.12344 c -1.08494,-2.08889 -7.07023,-0.50487 -9.09137,-1.01015 -0.73044,-0.18261 -1.282,-0.86249 -2.02031,-1.01016 -1.65089,-0.33017 -3.36717,0 -5.05076,0 -3.03046,0 -6.06091,0 -9.09137,0"
       id="path4863"
       inkscape:connector-curvature="0" />
    <path
       style="fill:none;fill-rule:evenodd;stroke:#000000;stroke-width:1px;stroke-linecap:butt;stroke-linejoin:miter;stroke-opacity:1"
       d="m 679.83266,219.99651 c 0.67344,1.34687 1.34687,2.69374 2.02031,4.04061 1.01015,2.0203 2.11308,3.99682 3.03046,6.06091 0.20836,0.46883 2.79931,6.91911 4.04061,9.09138 4.97685,8.70949 1.12405,1.79848 5.05076,8.08122 7.13284,11.41255 -1.58709,-1.87556 7.07107,11.11167 0.67343,1.01016 1.27495,2.07215 2.0203,3.03046 1.61457,2.07588 3.319,4.08175 5.05076,6.06092 3.53554,4.04061 1.01016,0 6.06092,6.06091 0.48201,0.57841 0.5398,1.43237 1.01015,2.02031 0.89242,1.11552 2.13804,1.91493 3.03046,3.03045 3.56284,4.45355 -3.15344,-0.70447 4.04061,5.05077 0.58793,0.47035 1.41797,0.5584 2.02031,1.01015 1.14285,0.85714 1.8876,2.17332 3.03045,3.03046 0.97124,0.72843 2.172,1.16184 3.03046,2.0203 0.2381,0.2381 -0.30117,0.85957 0,1.01016 0.60234,0.30116 1.54411,-0.47619 2.02031,0 0.47619,0.47619 -0.4762,1.54411 0,2.0203 0.47619,0.47619 1.41796,-0.30117 2.0203,0 0.30117,0.15059 -0.23809,0.77206 0,1.01015 0.2381,0.2381 0.70898,-0.15058 1.01015,0 0.99402,0.49701 3.04659,3.5436 4.04061,4.04061 0.30117,0.15059 0.70899,-0.15058 1.01016,0 4.20401,2.10201 -1.07989,-0.0697 1.01015,2.02031 0.23809,0.23809 0.77206,-0.2381 1.01015,0 0.2381,0.23809 -0.23809,0.77206 0,1.01015 0.2381,0.2381 0.70898,-0.15058 1.01015,0 0.42592,0.21296 0.58424,0.79719 1.01016,1.01015 0.30117,0.15059 0.77205,-0.23809 1.01015,0 0.23809,0.2381 -0.15059,0.70899 0,1.01016 2.102,4.20401 -0.0697,-1.07989 2.0203,1.01015 0.2381,0.23809 -0.23809,0.77206 0,1.01015 0.2381,0.2381 0.70899,-0.15058 1.01016,0 0.89533,0.44767 2.1109,2.41742 3.03045,3.03046 0.18817,0.12544 3.97588,1.95557 4.04061,2.0203 0.2381,0.2381 -0.23809,0.77206 0,1.01016 0.20652,0.20651 2.62994,-0.20026 3.03046,0 0.26299,0.13149 1.23064,1.79981 2.02031,1.01015 0.98361,-0.98362 -1.73172,-2.45328 -2.02031,-3.03046 -0.47619,-0.95238 -0.80133,-1.98634 -1.01015,-3.03046 -0.008,-0.0389 0.005,-3.0255 0,-3.03045 -0.2381,-0.2381 -0.77206,0.23809 -1.01015,0 -0.0406,-0.0407 0,-3.66965 0,-4.04061"
       id="path4865"
       inkscape:connector-curvature="0" />
    <rect
       style="fill:#ffffff;fill-rule:evenodd;stroke:#000000;stroke-width:1.41003931px;stroke-linecap:butt;stroke-linejoin:miter;stroke-opacity:1"
       id="rect3336-4-3-3"
       width="173.33621"
       height="22.823467"
       x="551.74829"
       y="40.899452" />
    <text
       xml:space="preserve"
       style="font-style:normal;font-weight:normal;font-size:40px;line-height:125%;font-family:sans-serif;letter-spacing:0px;word-spacing:0px;fill:#000000;fill-opacity:1;stroke:none;stroke-width:1px;stroke-linecap:butt;stroke-linejoin:miter;stroke-opacity:1"
       x="555.07886"
       y="55.341663"
       id="text4140-1-0-8"
       sodipodi:linespacing="125%"><tspan
         sodipodi:role="line"
         id="tspan4142-78-7-1"
         x="555.07886"
         y="55.341663"
         style="font-size:12.5px">ASI</tspan></text>
    <path
       style="fill:none;fill-rule:evenodd;stroke:#000000;stroke-width:1px;stroke-linecap:butt;stroke-linejoin:miter;stroke-opacity:1"
       d="m 513.15749,46.25027 c 10.43825,0 20.87649,0 31.31473,0 0.47629,0 5.00498,0.04578 5.05076,0 0.14246,-0.142458 0.10361,-2.823247 0,-3.030458 -0.57902,-1.158057 -2.10769,-1.405131 -3.03045,-2.020305 -0.39622,-0.264143 -0.61394,-0.74601 -1.01016,-1.010153 -0.62647,-0.417646 -1.41796,-0.558398 -2.0203,-1.010152 -0.76191,-0.571429 -1.22788,-1.492019 -2.02031,-2.020305 -0.28016,-0.186778 -0.77205,0.238095 -1.01015,0 -0.23809,-0.238096 0.2381,-0.772058 0,-1.010153 -0.99649,-0.996492 -2.0203,2.069881 -2.0203,-1.010152"
       id="path4903"
       inkscape:connector-curvature="0" />
    <text
       xml:space="preserve"
       style="font-style:normal;font-weight:normal;font-size:40px;line-height:125%;font-family:sans-serif;letter-spacing:0px;word-spacing:0px;fill:#000000;fill-opacity:1;stroke:none;stroke-width:1px;stroke-linecap:butt;stroke-linejoin:miter;stroke-opacity:1"
       x="521.23871"
       y="547.28595"
       id="text4926"
       sodipodi:linespacing="125%"><tspan
         sodipodi:role="line"
         id="tspan4928"
         x="521.23871"
         y="547.28595"
         style="font-size:12.5px">Pseudotechnology:</tspan><tspan
         sodipodi:role="line"
         x="521.23871"
         y="562.91095"
         id="tspan4930"
         style="font-size:12.5px">-rocketlauncher: can be built from chemical explosives, with a trigger and a rocket engine</tspan><tspan
         sodipodi:role="line"
         x="521.23871"
         y="578.53595"
         style="font-size:12.5px"
         id="tspan4936">-nuclear weapon, can be built from explositves with the implosion modification</tspan><tspan
         sodipodi:role="line"
         x="521.23871"
         y="594.16095"
         style="font-size:12.5px"
         id="tspan4938">-railgun can be crafted from electric coils and small objects which conduct</tspan></text>
    <rect
       style="fill:#999999;fill-rule:evenodd;stroke:#000000;stroke-width:1.41003931px;stroke-linecap:butt;stroke-linejoin:miter;stroke-opacity:1"
       id="rect3336-3-1-3-49-5"
       width="173.33621"
       height="22.823467"
       x="753.77881"
       y="400.13239" />
    <text
       xml:space="preserve"
       style="font-style:normal;font-weight:normal;font-size:40px;line-height:125%;font-family:sans-serif;letter-spacing:0px;word-spacing:0px;fill:#000000;fill-opacity:1;stroke:none;stroke-width:1px;stroke-linecap:butt;stroke-linejoin:miter;stroke-opacity:1"
       x="757.10938"
       y="414.57452"
       id="text4140-8-9-8-2-0"
       sodipodi:linespacing="125%"><tspan
         sodipodi:role="line"
         id="tspan4142-7-9-2-9-9"
         x="757.10938"
         y="414.57452"
         style="font-size:12.5px">nuclear weapons</tspan></text>
    <ellipse
       style="fill:#ff0000"
       id="path4471-6-9-1"
       cx="763.67535"
       cy="430.73706"
       rx="4.7982244"
       ry="5.8083773" />
  </g>
</svg>
